<svg xmlns="http://www.w3.org/2000/svg" xmlns:xlink="http://www.w3.org/1999/xlink" version="1.1" x="0px" y="0px" viewBox="0 0 48 60" enable-background="new 0 0 48 48" xml:space="preserve"><g><path d="M28,18.4c-1.1,0-2-0.9-2-2v-16H5.3c-1.1,0-2,0.9-2,2v43.1c0,1.1,0.9,2,2,2h37.5c1.1,0,2-0.9,2-2V18.4H28z M21.8,34   c0,1.6-0.4,2.9-1.3,3.7c-0.8,0.8-1.9,1.2-3.2,1.2c-1.6,0-3.1-0.6-4.3-1.9l1.6-2.2c0.8,0.9,1.7,1.3,2.6,1.3c0.4,0,0.8-0.2,1.1-0.5   c0.3-0.3,0.5-0.8,0.5-1.5v-6.4h-4.1v-2.6h7.1V34z M33.6,37.8c-0.9,0.8-2.1,1.1-3.6,1.1c-2.2,0-4.1-0.8-5.9-2.4l1.8-2.2   c1.5,1.3,2.8,1.9,4.1,1.9c0.6,0,1-0.1,1.3-0.4c0.3-0.2,0.5-0.6,0.5-1c0-0.4-0.2-0.7-0.5-1c-0.3-0.2-1-0.5-2-0.7   c-1.6-0.4-2.8-0.9-3.5-1.5c-0.7-0.6-1.1-1.6-1.1-2.9c0-1.3,0.5-2.3,1.4-3c0.9-0.7,2.1-1.1,3.5-1.1c0.9,0,1.8,0.2,2.7,0.5   c0.9,0.3,1.7,0.8,2.4,1.3l-1.5,2.2c-1.2-0.9-2.4-1.4-3.7-1.4c-0.5,0-0.9,0.1-1.2,0.4c-0.3,0.2-0.4,0.6-0.4,1c0,0.4,0.2,0.7,0.5,0.9   s1.2,0.5,2.5,0.8c1.3,0.3,2.3,0.8,3,1.4c0.7,0.6,1.1,1.6,1.1,2.8C35,36,34.5,37,33.6,37.8z"/><polygon points="41.4,14.5 29.9,3.5 29.9,14.5  "/></g><text x="0" y="63" fill="#000000" font-size="5px" font-weight="bold" font-family="'Helvetica Neue', Helvetica, Arial-Unicode, Arial, Sans-serif">Created by Vectors Market</text><text x="0" y="68" fill="#000000" font-size="5px" font-weight="bold" font-family="'Helvetica Neue', Helvetica, Arial-Unicode, Arial, Sans-serif">from the Noun Project</text></svg>